Coordinates
version=1
nRows=7
nColumns=46
inDegrees=yes

Units are S.I. units (second, meters, Newtons, ...)
Angles are in degrees.

endheader
time	pelvis_tilt	pelvis_list	pelvis_rotation	pelvis_tx	pelvis_ty	pelvis_tz	bb_angle	bb_tx	bb_ty	bb_tz	hip_flexion_r	hip_adduction_r	hip_rotation_r	knee_angle_r	knee_angle_r_beta	ankle_angle_r	subtalar_angle_r	mtp_angle_r	crank_angle_r	hip_flexion_l	hip_adduction_l	hip_rotation_l	knee_angle_l	knee_angle_l_beta	ankle_angle_l	subtalar_angle_l	mtp_angle_l	crank_angle_l	lumbar_extension	lumbar_bending	lumbar_rotation	arm_flex_r	arm_add_r	arm_rot_r	elbow_flex_r	pro_sup_r	wrist_flex_r	wrist_dev_r	arm_flex_l	arm_add_l	arm_rot_l	elbow_flex_l	pro_sup_l	wrist_flex_l	wrist_dev_l
      0.00500000	    -23.76268644	     -0.67105927	     -2.89928453	      0.15593077	      1.03744255	     -0.21085651	      0.00000000	      0.50000000	      0.00000000	      0.25000000	     91.20692469	     -2.84113987	      0.70261722	     84.44484029	      1.47384050	     -9.22858988	     -4.31459767	      0.00000000	      0.00000000	     61.11056373	     -7.15178426	      2.85714018	     78.40581600	      1.36843964	    -16.21176973	    -10.78817159	      0.00000000	      0.00000000	    -41.79932997	     -0.39453778	      2.16073693	     87.56437623	     -5.49987850	     42.08658262	     29.12679628	     41.04562084	      0.00000000	      0.00000000	     86.53499919	     -9.06245619	     40.33597455	     30.43194045	     41.08350372	      0.00000000	      0.00000000
      0.01000000	    -23.81627640	     -0.67615272	     -2.86665411	      0.15586909	      1.03743343	     -0.21093370	      0.00000000	      0.50000000	      0.00000000	      0.25000000	     91.24772049	     -2.87130554	      0.70329572	     84.41460183	      1.47331274	     -9.21015318	     -4.30946492	      0.00000000	      0.00000000	     61.17462082	     -7.12953656	      2.87920251	     78.38647349	      1.36810205	    -16.19012349	    -10.73217267	      0.00000000	      0.00000000	    -41.75347759	     -0.35147095	      2.12272090	     87.59215184	     -5.30725088	     41.81181285	     28.93610293	     41.06889262	      0.00000000	      0.00000000	     86.45703731	     -9.00122160	     39.89246914	     30.47703579	     41.13043626	      0.00000000	      0.00000000
      0.01500000	    -23.79254265	     -0.70721044	     -2.90432690	      0.15591065	      1.03740666	     -0.21089138	      0.00000000	      0.50000000	      0.00000000	      0.25000000	     91.22578998	     -2.82648280	      0.67355931	     84.42240459	      1.47344892	     -9.21732528	     -4.32587309	      0.00000000	      0.00000000	     61.14900955	     -7.18253840	      2.88555069	     78.41471423	      1.36859495	    -16.12987000	    -10.73181564	      0.00000000	      0.00000000	    -41.76804825	     -0.34920509	      2.17357113	     87.61634705	     -5.44130721	     42.23339838	     28.98933036	     41.35763293	      0.00000000	      0.00000000	     86.48340327	     -9.08144220	     40.20801878	     30.46731615	     41.39804998	      0.00000000	      0.00000000
      0.02000000	    -23.74594252	     -0.67100125	     -2.82789584	      0.15583445	      1.03768835	     -0.21102680	      0.00000000	      0.50000000	      0.00000000	      0.25000000	     91.16493979	     -2.92197229	      0.66469552	     84.36304254	      1.47241286	     -9.43833001	     -4.65710646	      0.00000000	      0.00000000	     61.07119629	     -7.06137457	      2.85479855	     78.27384489	      1.36613631	    -16.65294589	    -11.32371944	      0.00000000	      0.00000000	    -41.88558366	     -0.34734468	      2.15178773	     87.49443083	     -5.48010997	     41.20024295	     29.51543483	     41.33566942	      0.00000000	      0.00000000	     86.27776079	     -9.07151874	     39.05175174	     31.11324013	     41.36359198	      0.00000000	      0.00000000
      0.02500000	    -23.71137896	     -0.61551224	     -2.82842081	      0.15587406	      1.03783726	     -0.21091511	      0.00000000	      0.50000000	      0.00000000	      0.25000000	     91.15587429	     -2.93440580	      0.78949502	     84.44353762	      1.47381776	     -9.14732796	     -4.17332592	      0.00000000	      0.00000000	     61.00144426	     -7.05880717	      2.82020845	     78.26264769	      1.36594088	    -16.31099047	    -10.80355919	      0.00000000	      0.00000000	    -41.85724362	     -0.38870878	      2.01675624	     87.62514022	     -5.08305201	     41.34925607	     28.68412542	     41.20136859	      0.00000000	      0.00000000	     86.41909871	     -8.91679138	     38.93451047	     30.46117987	     41.24324055	      0.00000000	      0.00000000
      0.03000000	    -23.72016745	     -0.69833088	     -2.82097324	      0.15582009	      1.03780928	     -0.21094003	      0.00000000	      0.50000000	      0.00000000	      0.25000000	     91.14452943	     -2.92631024	      0.70194864	     84.41250587	      1.47327616	     -9.19359082	     -4.22822961	      0.00000000	      0.00000000	     61.05554083	     -7.11980075	      2.90124102	     78.31742590	      1.36689694	    -16.22904739	    -10.68707009	      0.00000000	      0.00000000	    -41.83701143	     -0.33041350	      2.06912891	     87.58808969	     -4.89201459	     40.76928188	     28.50975684	     40.97015435	      0.00000000	      0.00000000	     86.39677820	     -8.66031275	     38.41997153	     30.20774200	     41.00592438	      0.00000000	      0.00000000
      0.03500000	    -23.70521052	     -0.70969860	     -2.81138497	      0.15582436	      1.03784323	     -0.21095677	      0.00000000	      0.50000000	      0.00000000	      0.25000000	     91.13114213	     -2.93269154	      0.69467876	     84.42701490	      1.47352939	     -9.18154171	     -4.23086758	      0.00000000	      0.00000000	     61.03699354	     -7.11770350	      2.92257407	     78.31613307	      1.36687438	    -16.22072458	    -10.61989579	      0.00000000	      0.00000000	    -41.86143893	     -0.31494277	      2.08605477	     87.63752036	     -5.05957606	     41.35559510	     28.56045332	     40.90634215	      0.00000000	      0.00000000	     86.43444990	     -8.75347645	     38.73784065	     30.26141417	     40.93650897	      0.00000000	      0.00000000
